REM DIRINDEX 1\2,1\3,1\4,1\6,1\5\7,1\5\8
REM DIRNAME folder01,folder02,folder03,folder04,folder05,folder06,folder07,folder08
TITLE ""
FILE "DB4500_5th_5C_09.mp3" MP3
  TRACK 01 AUDIO
    TITLE "0:"
    INDEX 01 00:00:00
  TRACK 02 AUDIO
    TITLE "2:cjc114_3513"
    INDEX 01 00:00:01
  TRACK 03 AUDIO
    TITLE "0:"
    INDEX 01 00:01:07
  TRACK 04 AUDIO
    TITLE "3:cjc114_3514"
    INDEX 01 00:01:22
  TRACK 05 AUDIO
    TITLE "0:"
    INDEX 01 00:02:43
  TRACK 06 AUDIO
    TITLE "4:cjc114_3515"
    INDEX 01 00:02:55
  TRACK 07 AUDIO
    TITLE "0:"
    INDEX 01 00:05:65
  TRACK 08 AUDIO
    TITLE "2:cjc114_3516"
    INDEX 01 00:06:30
  TRACK 09 AUDIO
    TITLE "0:"
    INDEX 01 00:07:31
  TRACK 10 AUDIO
    TITLE "3:cjc114_3517"
    INDEX 01 00:07:45
  TRACK 11 AUDIO
    TITLE "0:"
    INDEX 01 00:09:06
  TRACK 12 AUDIO
    TITLE "4:cjc114_3518"
    INDEX 01 00:09:20
  TRACK 13 AUDIO
    TITLE "0:"
    INDEX 01 00:12:36
  TRACK 14 AUDIO
    TITLE "2:cjc114_3519"
    INDEX 01 00:12:71
  TRACK 15 AUDIO
    TITLE "0:"
    INDEX 01 00:14:11
  TRACK 16 AUDIO
    TITLE "3:cjc114_3520"
    INDEX 01 00:14:27
  TRACK 17 AUDIO
    TITLE "0:"
    INDEX 01 00:15:62
  TRACK 18 AUDIO
    TITLE "4:cjc114_3521"
    INDEX 01 00:16:00
  TRACK 19 AUDIO
    TITLE "0:"
    INDEX 01 00:19:30
  TRACK 20 AUDIO
    TITLE "2:cjc114_3522"
    INDEX 01 00:19:65
  TRACK 21 AUDIO
    TITLE "0:"
    INDEX 01 00:21:09
  TRACK 22 AUDIO
    TITLE "3:cjc114_3523"
    INDEX 01 00:21:25
  TRACK 23 AUDIO
    TITLE "0:"
    INDEX 01 00:22:25
  TRACK 24 AUDIO
    TITLE "4:cjc114_3524"
    INDEX 01 00:22:38
  TRACK 25 AUDIO
    TITLE "0:"
    INDEX 01 00:26:36
  TRACK 26 AUDIO
    TITLE "2:cjc114_3525"
    INDEX 01 00:26:73
  TRACK 27 AUDIO
    TITLE "0:"
    INDEX 01 00:28:12
  TRACK 28 AUDIO
    TITLE "3:cjc114_3526"
    INDEX 01 00:28:23
  TRACK 29 AUDIO
    TITLE "0:"
    INDEX 01 00:29:50
  TRACK 30 AUDIO
    TITLE "4:cjc114_3527"
    INDEX 01 00:29:66
  TRACK 31 AUDIO
    TITLE "0:"
    INDEX 01 00:32:33
  TRACK 32 AUDIO
    TITLE "2:cjc114_3528"
    INDEX 01 00:32:70
  TRACK 33 AUDIO
    TITLE "0:"
    INDEX 01 00:33:73
  TRACK 34 AUDIO
    TITLE "3:cjc114_3529"
    INDEX 01 00:34:10
  TRACK 35 AUDIO
    TITLE "0:"
    INDEX 01 00:35:43
  TRACK 36 AUDIO
    TITLE "4:cjc114_3530"
    INDEX 01 00:35:55
  TRACK 37 AUDIO
    TITLE "0:"
    INDEX 01 00:38:39
  TRACK 38 AUDIO
    TITLE "2:cjc114_3531"
    INDEX 01 00:39:15
  TRACK 39 AUDIO
    TITLE "0:"
    INDEX 01 00:40:32
  TRACK 40 AUDIO
    TITLE "3:cjc114_3532"
    INDEX 01 00:40:54
  TRACK 41 AUDIO
    TITLE "0:"
    INDEX 01 00:41:69
  TRACK 42 AUDIO
    TITLE "4:cjc114_3533"
    INDEX 01 00:42:18
  TRACK 43 AUDIO
    TITLE "0:"
    INDEX 01 00:46:37
  TRACK 44 AUDIO
    TITLE "2:cjc114_3534"
    INDEX 01 00:47:03
  TRACK 45 AUDIO
    TITLE "0:"
    INDEX 01 00:48:14
  TRACK 46 AUDIO
    TITLE "3:cjc114_3535"
    INDEX 01 00:48:34
  TRACK 47 AUDIO
    TITLE "0:"
    INDEX 01 00:49:70
  TRACK 48 AUDIO
    TITLE "4:cjc114_3536"
    INDEX 01 00:50:13
  TRACK 49 AUDIO
    TITLE "0:"
    INDEX 01 00:53:13
  TRACK 50 AUDIO
    TITLE "2:cjc114_3537"
    INDEX 01 00:53:60
  TRACK 51 AUDIO
    TITLE "0:"
    INDEX 01 00:55:16
  TRACK 52 AUDIO
    TITLE "3:cjc114_3538"
    INDEX 01 00:55:36
  TRACK 53 AUDIO
    TITLE "0:"
    INDEX 01 00:56:53
  TRACK 54 AUDIO
    TITLE "4:cjc114_3539"
    INDEX 01 00:56:74
  TRACK 55 AUDIO
    TITLE "0:"
    INDEX 01 01:00:59
  TRACK 56 AUDIO
    TITLE "2:cjc114_3540"
    INDEX 01 01:01:29
  TRACK 57 AUDIO
    TITLE "0:"
    INDEX 01 01:02:34
  TRACK 58 AUDIO
    TITLE "3:cjc114_3541"
    INDEX 01 01:02:54
  TRACK 59 AUDIO
    TITLE "0:"
    INDEX 01 01:03:57
  TRACK 60 AUDIO
    TITLE "4:cjc114_3542"
    INDEX 01 01:04:03
  TRACK 61 AUDIO
    TITLE "0:"
    INDEX 01 01:08:03
  TRACK 62 AUDIO
    TITLE "2:cjc114_3543"
    INDEX 01 01:08:42
  TRACK 63 AUDIO
    TITLE "0:"
    INDEX 01 01:09:57
  TRACK 64 AUDIO
    TITLE "3:cjc114_3544"
    INDEX 01 01:10:08
  TRACK 65 AUDIO
    TITLE "0:"
    INDEX 01 01:11:19
  TRACK 66 AUDIO
    TITLE "4:cjc114_3545"
    INDEX 01 01:11:41
  TRACK 67 AUDIO
    TITLE "0:"
    INDEX 01 01:16:01
  TRACK 68 AUDIO
    TITLE "2:cjc114_3546"
    INDEX 01 01:16:44
  TRACK 69 AUDIO
    TITLE "0:"
    INDEX 01 01:17:69
  TRACK 70 AUDIO
    TITLE "3:cjc114_3547"
    INDEX 01 01:18:13
  TRACK 71 AUDIO
    TITLE "0:"
    INDEX 01 01:19:44
  TRACK 72 AUDIO
    TITLE "4:cjc114_3548"
    INDEX 01 01:19:64
  TRACK 73 AUDIO
    TITLE "0:"
    INDEX 01 01:23:38
  TRACK 74 AUDIO
    TITLE "2:cjc114_3549"
    INDEX 01 01:24:04
  TRACK 75 AUDIO
    TITLE "0:"
    INDEX 01 01:25:31
  TRACK 76 AUDIO
    TITLE "3:cjc114_3550"
    INDEX 01 01:25:51
  TRACK 77 AUDIO
    TITLE "0:"
    INDEX 01 01:27:71
  TRACK 78 AUDIO
    TITLE "4:cjc114_3551"
    INDEX 01 01:28:18
  TRACK 79 AUDIO
    TITLE "0:"
    INDEX 01 01:30:71
